<svg xmlns="http://www.w3.org/2000/svg" xmlns:xlink="http://www.w3.org/1999/xlink" width="65px"
    height="65px" viewBox="0 0 65 65" version="1.1">
    <!-- Generator: Sketch 52.5 (67469) - http://www.bohemiancoding.com/sketch -->
    <title>011-magic-4</title>
    <desc>Created with Sketch.</desc>
    <g id="Page-1" stroke="none" stroke-width="1" fill="none" fill-rule="evenodd">
        <g id="1-copy-2" transform="translate(-876.000000, -111.000000)">
            <g id="011-magic-4" transform="translate(876.000000, 111.000000)">
                <path
                    d="M17.307363,40.0684932 L47.692637,40.0684932 C48.8912191,40.0684932 49.8630137,41.0652055 49.8630137,42.2945205 L49.8630137,46.7465753 C49.8630137,47.9758903 48.8912191,48.9726027 47.692637,48.9726027 L17.307363,48.9726027 C16.1087809,48.9726027 15.1369863,47.9758903 15.1369863,46.7465753 L15.1369863,42.2945205 C15.1369863,41.0652055 16.1087809,40.0684932 17.307363,40.0684932 Z"
                    id="Path" fill="#295BF8" />
                <path
                    d="M17.3287671,40.0684932 C16.1183647,40.0684932 15.1369863,41.0652055 15.1369863,42.2945205 L15.1369863,46.7465753 C15.1369863,47.9758903 16.1183647,48.9726027 17.3287671,48.9726027 L43.630137,48.9726027 L21.7123288,40.0684932 L17.3287671,40.0684932 Z"
                    id="Path" fill="#295BF8" />
                <polygon id="Path" fill="#295BF8"
                    points="24.0410959 24.9315068 40.9589041 24.9315068 40.9589041 40.0684932 24.0410959 40.0684932" />
                <polygon id="Path" fill="#FFD782"
                    points="56.0958904 26.8112633 49.6086106 31.1643836 40.9589041 28.9878234 40.9589041 24.6347032 48.5273973 26.8112633 56.0958904 21.369863" />
                <polyline id="Path" fill="#F9BB4B"
                    points="56.0958904 26.7123288 61.4383562 25.6438356 61.4383562 21.369863 56.0958904 21.369863" />
                <polygon id="Path" fill="#FFD782"
                    points="8.90410959 26.8112633 15.3913894 31.1643836 24.0410959 28.9878234 24.0410959 24.6347032 16.4726027 26.8112633 8.90410959 21.369863" />
                <polyline id="Path" fill="#F9BB4B"
                    points="8.90410959 26.7123288 3.56164384 25.6438356 3.56164384 21.369863 8.90410959 21.369863" />
                <polygon id="Path" fill="#FFD782"
                    points="24.9315068 5.34246575 40.0684932 5.34246575 40.0684932 20.4794521 24.9315068 20.4794521" />
                <polygon id="Path" fill="#394D5C"
                    points="24.9315068 0.890410959 40.0684932 0.890410959 40.0684932 5.34246575 24.9315068 5.34246575" />
                <path
                    d="M23.8184932,8.90410959 L24.9315068,8.90410959 L24.9315068,15.1369863 L23.8184932,15.1369863 C21.9745208,15.1369863 20.4794521,13.7415888 20.4794521,12.0205479 C20.4794521,10.2995071 21.9745208,8.90410959 23.8184932,8.90410959 Z"
                    id="Path" fill="#F9BB4B" />
                <path
                    d="M41.1815068,15.1369863 L40.0684932,15.1369863 L40.0684932,8.90410959 L41.1815068,8.90410959 C43.0254792,8.90410959 44.5205479,10.2995071 44.5205479,12.0205479 C44.5205479,13.7415888 43.0254792,15.1369863 41.1815068,15.1369863 Z"
                    id="Path" fill="#F9BB4B" />
                <polygon id="Path" fill="#295BF8"
                    points="24.0410959 24.9315068 40.9589041 34.6624266 40.9589041 40.0684932 24.0410959 40.0684932" />
                <polygon id="Path" fill="#D3843D"
                    points="47.1917808 63.2191781 48.9726027 63.2191781 48.9726027 65 47.1917808 65" />
                <polygon id="Path" fill="#D3843D"
                    points="50.7534247 63.2191781 65 63.2191781 65 65 50.7534247 65" />
                <g id="Group" transform="translate(0.000000, 4.452055)" fill="#87CEE9">
                    <path
                        d="M59.4667319,6.52968037 C56.4823087,6.52596062 54.0643609,4.09220932 54.0606654,1.08828006 C54.0606654,0.487281614 54.5447828,0 55.1418787,0 C55.7389745,0 56.223092,0.487281614 56.223092,1.08828006 C56.223092,2.89127526 57.6754445,4.35312024 59.4667319,4.35312024 C60.0638278,4.35312024 60.5479452,4.84040186 60.5479452,5.4414003 C60.5479452,6.04239875 60.0638278,6.52968037 59.4667319,6.52968037 Z"
                        id="Path" />
                    <path
                        d="M59.4667319,6.52968037 C56.4823087,6.52596062 54.0643609,4.09220932 54.0606654,1.08828006 C54.0606654,0.487281614 54.5447828,0 55.1418787,0 C55.7389745,0 56.223092,0.487281614 56.223092,1.08828006 C56.223092,2.89127526 57.6754445,4.35312024 59.4667319,4.35312024 C60.0638278,4.35312024 60.5479452,4.84040186 60.5479452,5.4414003 C60.5479452,6.04239875 60.0638278,6.52968037 59.4667319,6.52968037 Z"
                        id="Path" />
                    <path
                        d="M50.8170254,6.52968037 C50.2199296,6.52968037 49.7358121,6.04239875 49.7358121,5.4414003 C49.7358121,4.84040186 50.2199296,4.35312024 50.8170254,4.35312024 C52.6083129,4.35312024 54.0606654,2.89127526 54.0606654,1.08828006 C54.0606654,0.487281614 54.5447828,0 55.1418787,0 C55.7389745,0 56.223092,0.487281614 56.223092,1.08828006 C56.2193964,4.09220932 53.8014487,6.52596062 50.8170254,6.52968037 Z"
                        id="Path" />
                    <path
                        d="M55.1418787,10.8828006 C54.5447828,10.8828006 54.0606654,10.395519 54.0606654,9.79452055 C54.0643609,6.79059129 56.4823087,4.35683998 59.4667319,4.35312024 C60.0638278,4.35312024 60.5479452,4.84040186 60.5479452,5.4414003 C60.5479452,6.04239875 60.0638278,6.52968037 59.4667319,6.52968037 C57.6754445,6.52968037 56.223092,7.99152534 56.223092,9.79452055 C56.223092,10.395519 55.7389745,10.8828006 55.1418787,10.8828006 Z"
                        id="Path" />
                    <path
                        d="M55.1418787,10.8828006 C54.5447828,10.8828006 54.0606654,10.395519 54.0606654,9.79452055 C54.0643609,6.79059129 56.4823087,4.35683998 59.4667319,4.35312024 C60.0638278,4.35312024 60.5479452,4.84040186 60.5479452,5.4414003 C60.5479452,6.04239875 60.0638278,6.52968037 59.4667319,6.52968037 C57.6754445,6.52968037 56.223092,7.99152534 56.223092,9.79452055 C56.223092,10.395519 55.7389745,10.8828006 55.1418787,10.8828006 Z"
                        id="Path" />
                    <path
                        d="M55.1418787,10.8828006 C54.5447828,10.8828006 54.0606654,10.395519 54.0606654,9.79452055 C54.0606654,7.99152534 52.6083129,6.52968037 50.8170254,6.52968037 C50.2199296,6.52968037 49.7358121,6.04239875 49.7358121,5.4414003 C49.7358121,4.84040186 50.2199296,4.35312024 50.8170254,4.35312024 C53.8014487,4.35683998 56.2193964,6.79059129 56.223092,9.79452055 C56.223092,10.395519 55.7389745,10.8828006 55.1418787,10.8828006 Z"
                        id="Path" />
                    <path
                        d="M9.73091977,34.8249619 C6.74649654,34.8212422 4.32854882,32.3874909 4.32485323,29.3835616 C4.32485323,28.7825632 4.80897068,28.2952816 5.40606654,28.2952816 C6.0031624,28.2952816 6.48727984,28.7825632 6.48727984,29.3835616 C6.48727984,31.1865568 7.93963232,32.6484018 9.73091977,32.6484018 C10.3280156,32.6484018 10.8121331,33.1356834 10.8121331,33.7366819 C10.8121331,34.3376803 10.3280156,34.8249619 9.73091977,34.8249619 Z"
                        id="Path" />
                    <path
                        d="M9.73091977,34.8249619 C6.74649654,34.8212422 4.32854882,32.3874909 4.32485323,29.3835616 C4.32485323,28.7825632 4.80897068,28.2952816 5.40606654,28.2952816 C6.0031624,28.2952816 6.48727984,28.7825632 6.48727984,29.3835616 C6.48727984,31.1865568 7.93963232,32.6484018 9.73091977,32.6484018 C10.3280156,32.6484018 10.8121331,33.1356834 10.8121331,33.7366819 C10.8121331,34.3376803 10.3280156,34.8249619 9.73091977,34.8249619 Z"
                        id="Path" />
                    <path
                        d="M1.08121331,34.8249619 C0.484117448,34.8249619 0,34.3376803 0,33.7366819 C0,33.1356834 0.484117448,32.6484018 1.08121331,32.6484018 C2.87250075,32.6484018 4.32485323,31.1865568 4.32485323,29.3835616 C4.32485323,28.7825632 4.80897068,28.2952816 5.40606654,28.2952816 C6.0031624,28.2952816 6.48727984,28.7825632 6.48727984,29.3835616 C6.48358426,32.3874909 4.06563653,34.8212422 1.08121331,34.8249619 Z"
                        id="Path" />
                    <path
                        d="M5.40606654,39.1780822 C4.80897068,39.1780822 4.32485323,38.6908006 4.32485323,38.0898021 C4.32854882,35.0858729 6.74649654,32.6521216 9.73091977,32.6484018 C10.3280156,32.6484018 10.8121331,33.1356834 10.8121331,33.7366819 C10.8121331,34.3376803 10.3280156,34.8249619 9.73091977,34.8249619 C7.93963232,34.8249619 6.48727984,36.2868069 6.48727984,38.0898021 C6.48727984,38.6908006 6.0031624,39.1780822 5.40606654,39.1780822 Z"
                        id="Path" />
                    <path
                        d="M5.40606654,39.1780822 C4.80897068,39.1780822 4.32485323,38.6908006 4.32485323,38.0898021 C4.32854882,35.0858729 6.74649654,32.6521216 9.73091977,32.6484018 C10.3280156,32.6484018 10.8121331,33.1356834 10.8121331,33.7366819 C10.8121331,34.3376803 10.3280156,34.8249619 9.73091977,34.8249619 C7.93963232,34.8249619 6.48727984,36.2868069 6.48727984,38.0898021 C6.48727984,38.6908006 6.0031624,39.1780822 5.40606654,39.1780822 Z"
                        id="Path" />
                    <path
                        d="M5.40606654,39.1780822 C4.80897068,39.1780822 4.32485323,38.6908006 4.32485323,38.0898021 C4.32485323,36.2868069 2.87250075,34.8249619 1.08121331,34.8249619 C0.484117448,34.8249619 0,34.3376803 0,33.7366819 C0,33.1356834 0.484117448,32.6484018 1.08121331,32.6484018 C4.06563653,32.6521216 6.48358426,35.0858729 6.48727984,38.0898021 C6.48727984,38.6908006 6.0031624,39.1780822 5.40606654,39.1780822 Z"
                        id="Path" />
                </g>
                <polygon id="Path" fill="#AABECE"
                    points="32.0547945 51.6438356 33.8356164 51.6438356 33.8356164 59.6575342 32.0547945 59.6575342" />
                <polygon id="Path" fill="#AABECE"
                    points="37.3972603 52.5342466 39.1780822 52.5342466 39.1780822 60.5479452 37.3972603 60.5479452" />
                <polygon id="Path" fill="#AABECE"
                    points="25.8219178 52.5342466 27.6027397 52.5342466 27.6027397 60.5479452 25.8219178 60.5479452" />
                <polygon id="Path" fill="#D3843D"
                    points="0 63.2191781 44.5205479 63.2191781 44.5205479 65 0 65" />
                <polygon id="Path" fill="#AABECE"
                    points="19.5890411 53.4246575 21.369863 53.4246575 21.369863 57.8767123 19.5890411 57.8767123" />
                <polygon id="Path" fill="#AABECE"
                    points="43.630137 51.6438356 45.4109589 51.6438356 45.4109589 56.0958904 43.630137 56.0958904" />
                <path
                    d="M9.78675685,20.6829732 C9.59036445,20.5798841 9.37813417,20.5108039 9.15851272,20.4794521 L3.75244618,20.4794521 C3.15535032,20.4794521 2.67123288,20.9667337 2.67123288,21.5677321 L2.67123288,25.9208524 C2.67123288,26.4378916 3.03286913,26.8837251 3.53599242,26.9873456 L8.73246818,28.0341774 L15.0413057,32.2677357 C15.2957708,32.4388421 15.6098929,32.4930437 15.9065931,32.4181182 L23.2142857,30.5784572 L23.2142857,38.9802131 L17.8082192,38.9802131 C16.0169317,38.9802131 14.5645793,40.4420581 14.5645793,42.2450533 L14.5645793,46.5981735 C14.5645793,48.4011687 16.0169317,49.8630137 17.8082192,49.8630137 L48.0821918,49.8630137 C49.8734792,49.8630137 51.3258317,48.4011687 51.3258317,46.5981735 L51.3258317,42.2450533 C51.3258317,40.4420581 49.8734792,38.9802131 48.0821918,38.9802131 L42.6761252,38.9802131 L42.6761252,30.5784572 L49.9817062,32.4181182 C50.2784063,32.4930437 50.5925284,32.4388421 50.8469935,32.2677357 L57.155831,28.0341774 L62.3544185,26.9873456 C62.8575418,26.8837251 63.2191781,26.4378916 63.2191781,25.9208524 L63.2191781,21.5677321 C63.2191781,20.9667337 62.7350606,20.4794521 62.1379648,20.4794521 L56.7318982,20.4794521 C56.5122768,20.5102724 56.3000465,20.5793528 56.1036541,20.6829732 L48.9590938,25.8182948 L41.89214,23.7857405 C41.8520169,23.7836148 41.8124216,23.7836148 41.7722985,23.7857405 C41.7147535,23.7666104 41.6550966,23.7527944 41.5949119,23.7442922 L24.295499,23.7442922 C24.2353144,23.7506689 24.1761855,23.7628908 24.1181125,23.7804265 C24.0779893,23.778301 24.0383941,23.778301 23.9982709,23.7804265 L16.9313172,25.8129808 L9.78675685,20.6829732 Z M4.83365949,22.6560122 L8.07729941,22.6560122 L8.07729941,25.6811969 L4.83365949,25.028654 L4.83365949,22.6560122 Z M61.0567515,25.0297168 L57.8131115,25.6822597 L57.8131115,22.6560122 L61.0567515,22.6560122 L61.0567515,25.0297168 Z M17.8082192,47.6864536 C17.2111233,47.6864536 16.7270059,47.199172 16.7270059,46.5981735 L16.7270059,42.2450533 C16.7270059,41.6440548 17.2111233,41.1567732 17.8082192,41.1567732 L21.9255935,41.1567732 L38.1437931,47.6864536 L17.8082192,47.6864536 Z M49.1634051,42.2450533 L49.1634051,46.5981735 C49.1634051,47.199172 48.6792876,47.6864536 48.0821918,47.6864536 L43.9658734,47.6864536 L27.7476738,41.1567732 L48.0821918,41.1567732 C48.6792876,41.1567732 49.1634051,41.6440548 49.1634051,42.2450533 Z M25.3767123,38.9802131 L25.3767123,26.6924259 L40.5136986,35.2626314 L40.5136986,38.9802131 L25.3767123,38.9802131 Z M49.7916492,27.8938913 L55.6506849,23.68212 L55.6506849,26.4267325 L50.0424188,30.1900134 L42.6761252,28.3360051 L42.6761252,26.2758187 L48.866177,28.0559642 C49.1829387,28.1468314 49.5239855,28.0873161 49.7916492,27.8938913 Z M40.5136986,32.7672392 L28.4223761,25.9208524 L40.5136986,25.9208524 L40.5136986,32.7672392 Z M23.2142857,26.2758187 L23.2142857,28.3360051 L15.8479922,30.1857623 L10.239726,26.4267325 L10.239726,23.68212 L16.0987617,27.8938913 C16.3664254,28.0873161 16.7074723,28.1468314 17.024234,28.0559642 L23.2142857,26.2758187 Z"
                    id="Shape" fill="#000000" fill-rule="nonzero" />
                <polygon id="Path" fill="#000000"
                    points="28.4931507 8.90410959 31.1643836 8.90410959 31.1643836 11.5753425 28.4931507 11.5753425" />
                <polygon id="Path" fill="#000000"
                    points="33.8356164 8.90410959 36.5068493 8.90410959 36.5068493 11.5753425 33.8356164 11.5753425" />
                <path
                    d="M41.1073059,1.06849315 C41.1073059,0.478421949 40.6255616,0 40.0313927,0 L24.9686073,0 C24.3744384,0 23.8926941,0.478421949 23.8926941,1.06849315 L23.8926941,7.47945205 C21.5160185,7.47945205 19.5890411,9.39313998 19.5890411,11.7534247 C19.5890411,14.1137093 21.5160185,16.0273973 23.8926941,16.0273973 L23.8926941,20.3013699 C23.8926941,20.8914411 24.3744384,21.369863 24.9686073,21.369863 L40.0313927,21.369863 C40.6255616,21.369863 41.1073059,20.8914411 41.1073059,20.3013699 L41.1073059,16.0273973 C43.4839815,16.0273973 45.4109589,14.1137093 45.4109589,11.7534247 C45.4109589,9.39313998 43.4839815,7.47945205 41.1073059,7.47945205 L41.1073059,1.06849315 Z M26.0445205,2.1369863 L38.9554795,2.1369863 L38.9554795,4.2739726 L26.0445205,4.2739726 L26.0445205,2.1369863 Z M21.7408676,11.7534247 C21.7408676,10.5732823 22.7043562,9.61643836 23.8926941,9.61643836 L23.8926941,13.890411 C22.7043562,13.890411 21.7408676,12.9335671 21.7408676,11.7534247 Z M38.9554795,19.2328767 L26.0445205,19.2328767 L26.0445205,6.4109589 L38.9554795,6.4109589 L38.9554795,19.2328767 Z M43.2591324,11.7534247 C43.2591324,12.9335671 42.2956438,13.890411 41.1073059,13.890411 L41.1073059,9.61643836 C42.2956438,9.61643836 43.2591324,10.5732823 43.2591324,11.7534247 Z"
                    id="Shape" fill="#000000" fill-rule="nonzero" />
                <polygon id="Path" fill="#000000"
                    points="47.1917808 63.2191781 48.9726027 63.2191781 48.9726027 65 47.1917808 65" />
                <polygon id="Path" fill="#000000"
                    points="50.7534247 63.2191781 65 63.2191781 65 65 50.7534247 65" />
                <path
                    d="M54.1369863,14.0684932 C54.1369863,14.6585644 54.6154082,15.1369863 55.2054795,15.1369863 C55.7955507,15.1369863 56.2739726,14.6585644 56.2739726,14.0684932 C56.2739726,12.2982797 57.7092386,10.8630137 59.4794521,10.8630137 C60.0695233,10.8630137 60.5479452,10.3845918 60.5479452,9.79452055 C60.5479452,9.20444935 60.0695233,8.7260274 59.4794521,8.7260274 C57.7092386,8.7260274 56.2739726,7.29076142 56.2739726,5.52054795 C56.2739726,4.93047674 55.7955507,4.45205479 55.2054795,4.45205479 C54.6154082,4.45205479 54.1369863,4.93047674 54.1369863,5.52054795 C54.1369863,7.29076142 52.7017203,8.7260274 50.9315068,8.7260274 C50.3414356,8.7260274 49.8630137,9.20444935 49.8630137,9.79452055 C49.8630137,10.3845918 50.3414356,10.8630137 50.9315068,10.8630137 C52.7017203,10.8630137 54.1369863,12.2982797 54.1369863,14.0684932 Z M55.2054795,8.69315868 C55.5169493,9.11210402 55.887896,9.48305065 56.3068413,9.79452055 C55.887896,10.1059904 55.5169493,10.4769371 55.2054795,10.8958824 C54.8940096,10.4769371 54.5230629,10.1059904 54.1041176,9.79452055 C54.5230629,9.48305065 54.8940096,9.11210402 55.2054795,8.69315868 Z"
                    id="Shape" fill="#000000" fill-rule="nonzero" />
                <path
                    d="M6.4109589,34.0136986 C6.4109589,33.4236274 5.93253696,32.9452055 5.34246575,32.9452055 C4.75239455,32.9452055 4.2739726,33.4236274 4.2739726,34.0136986 C4.2739726,35.7839121 2.83870662,37.2191781 1.06849315,37.2191781 C0.478421949,37.2191781 0,37.6976 0,38.2876712 C0,38.8777424 0.478421949,39.3561644 1.06849315,39.3561644 C2.83870662,39.3561644 4.2739726,40.7914304 4.2739726,42.5616438 C4.2739726,43.151715 4.75239455,43.630137 5.34246575,43.630137 C5.93253696,43.630137 6.4109589,43.151715 6.4109589,42.5616438 C6.4109589,40.7914304 7.84622488,39.3561644 9.61643836,39.3561644 C10.2065096,39.3561644 10.6849315,38.8777424 10.6849315,38.2876712 C10.6849315,37.6976 10.2065096,37.2191781 9.61643836,37.2191781 C7.84622488,37.2191781 6.4109589,35.7839121 6.4109589,34.0136986 Z M5.34246575,39.3890331 C5.03099586,38.9700878 4.66004923,38.5991411 4.24110388,38.2876712 C4.66004923,37.9762013 5.03099586,37.6052547 5.34246575,37.1863094 C5.65393565,37.6052547 6.02488228,37.9762013 6.44382762,38.2876712 C6.02488228,38.5991411 5.65393565,38.9700878 5.34246575,39.3890331 Z"
                    id="Shape" fill="#000000" fill-rule="nonzero" />
                <polygon id="Path" fill="#000000"
                    points="32.0547945 51.6438356 33.8356164 51.6438356 33.8356164 59.6575342 32.0547945 59.6575342" />
                <polygon id="Path" fill="#000000"
                    points="37.3972603 52.5342466 39.1780822 52.5342466 39.1780822 60.5479452 37.3972603 60.5479452" />
                <polygon id="Path" fill="#000000"
                    points="25.8219178 52.5342466 27.6027397 52.5342466 27.6027397 60.5479452 25.8219178 60.5479452" />
                <polygon id="Path" fill="#000000"
                    points="0 63.2191781 44.5205479 63.2191781 44.5205479 65 0 65" />
                <polygon id="Path" fill="#000000"
                    points="19.5890411 53.4246575 21.369863 53.4246575 21.369863 57.8767123 19.5890411 57.8767123" />
                <polygon id="Path" fill="#000000"
                    points="43.630137 51.6438356 45.4109589 51.6438356 45.4109589 56.0958904 43.630137 56.0958904" />
            </g>
        </g>
    </g>
</svg>