<svg xmlns="http://www.w3.org/2000/svg" width="90" height="25" viewBox="0 0 90 25">
    <defs>
        <linearGradient x1="0%" y1="50%" x2="118.486%" y2="50%" id="a">
            <stop stop-color="#FFF" stop-opacity=".667" offset="0%" />
            <stop stop-color="#D7D7D7" stop-opacity=".219" offset="24.075%" />
            <stop stop-color="#4D4D4D" stop-opacity="0" offset="45.856%" />
            <stop stop-color="#FFF" stop-opacity=".51" offset="71.892%" />
            <stop stop-color="#F2F2F2" stop-opacity=".4" offset="87.351%" />
            <stop stop-color="#FFF" stop-opacity=".624" offset="100%" />
        </linearGradient>
    </defs>
    <g fill="none" fill-rule="nonzero">
        <path
            d="M12.065 5.782h.001v13.241H8.59l-.298-1.142h-.099a5.25 5.25 0 01-1.49 1.043c-.562.265-1.109.397-1.638.397-1.026 0-1.92-.264-2.682-.794-.76-.53-1.349-1.283-1.762-2.26C.207 15.292 0 14.142 0 12.818c0-1.308.24-2.454.72-3.44.48-.984 1.109-1.741 1.887-2.27.778-.53 1.597-.795 2.458-.795.629 0 1.163.103 1.601.31a4.45 4.45 0 011.129.786V4.023c.137-1.538 1.56-2.307 4.27-2.307v4.066zm-4.27 8.335v-3.735c-.447-.396-1.01-.594-1.687-.594-.497 0-.91.24-1.242.72-.33.48-.496 1.233-.496 2.259 0 1.076.157 1.858.471 2.346.315.488.77.733 1.366.733.347 0 .645-.067.894-.2.248-.131.48-.363.695-.694v-.835h-.001zm4.719 9.224h.002c1.944-.767 2.903-2.355 2.877-4.765v-.05l.05-11.916h4.27l-.05 11.768c0 1.572-.372 2.85-1.117 3.836-.745.985-1.978 1.477-3.7 1.477-.926 0-1.704-.116-2.333-.347v-.003h.001zm51.194-4.33c-2.71 0-4.133-.77-4.27-2.308V6.61h4.27v12.401zM17.584 5.07c-.662 0-1.209-.2-1.64-.597-.43-.397-.645-.91-.645-1.539 0-.629.216-1.142.646-1.54C16.375 1 16.922.8 17.584.8s1.208.199 1.638.596c.43.397.646.91.646 1.54 0 .628-.215 1.141-.646 1.538-.43.398-.976.596-1.638.596zm5.059 1.539h4.27v12.413h-4.27V6.609zm2.135-1.54c-.662 0-1.208-.198-1.639-.596-.43-.397-.645-.91-.645-1.539 0-.629.215-1.142.645-1.54C23.57 1 24.116.8 24.778.8s1.208.199 1.639.596c.43.397.645.91.645 1.54 0 .628-.215 1.141-.645 1.538-.43.398-.977.596-1.64.596l.001-.001zm5.263 1.54h3.476l.298 1.49h.1a7.927 7.927 0 011.812-1.304c.629-.323 1.332-.484 2.11-.484 1.324 0 2.3.442 2.93 1.328.629.886.943 2.131.943 3.737v7.646h-4.27v-7.1c0-.762-.095-1.283-.285-1.564-.19-.282-.51-.422-.956-.422-.364 0-.679.07-.944.21-.265.141-.58.385-.943.733v8.143h-4.27V6.61l-.001-.001zm14.698 0h3.476l.298 1.49h.1a7.93 7.93 0 011.812-1.304c.629-.323 1.332-.484 2.11-.484 1.324 0 2.3.442 2.93 1.328.629.886.943 2.131.943 3.737v7.646h-4.27v-7.1c0-.762-.095-1.283-.286-1.564-.19-.282-.509-.422-.955-.422-.365 0-.68.07-.944.21-.265.141-.58.385-.943.733v8.143h-4.27V6.61l-.001-.001zm16.833-1.54c-.662 0-1.208-.198-1.638-.596-.43-.397-.646-.91-.646-1.539 0-.629.215-1.142.646-1.54C60.364 1 60.91.8 61.572.8c.663 0 1.209.199 1.639.596.43.397.646.91.646 1.54 0 .628-.216 1.141-.646 1.538-.43.398-.976.596-1.639.596v-.001z"
            fill="#000" />
        <path
            d="M88 18.368c-6.667-3.424-13.333 4.143-20 .72V5.632c6.667 3.424 13.333-4.144 20-.72v13.456z"
            fill="#FFD500" />
        <path
            d="M84.246 4C78.83 3.944 73.415 8.203 68 5.556v6.552c6.664 3.353 13.336-4.063 20-.71V8.144v-.115-3.161c-1.25-.611-2.505-.853-3.754-.866z"
            fill="#005BBB" />
        <path
            d="M20 15.368c-6.667-3.424-13.333 4.144-20 .72V2.632c6.667 3.424 13.333-4.144 20-.72v13.456z"
            fill="url(#a)" opacity=".5" transform="translate(68 3)" />
    </g>
</svg>